<?xml version="1.0" encoding="UTF-8" standalone="no"?>
<svg
   width="1415.174"
   height="654.99988"
   overflow="hidden"
   version="1.1"
   id="svg46"
   sodipodi:docname="scifloat.svg"
   xmlns:inkscape="http://www.inkscape.org/namespaces/inkscape"
   xmlns:sodipodi="http://sodipodi.sourceforge.net/DTD/sodipodi-0.dtd"
   xmlns="http://www.w3.org/2000/svg"
   xmlns:svg="http://www.w3.org/2000/svg">
  <sodipodi:namedview
     id="namedview46"
     pagecolor="#505050"
     bordercolor="#eeeeee"
     borderopacity="1"
     inkscape:showpageshadow="0"
     inkscape:pageopacity="0"
     inkscape:pagecheckerboard="0"
     inkscape:deskcolor="#505050" />
  <defs
     id="defs2" />
  <path
     d="M 140.43126,76.666901 C 140.43126,71.051901 144.98306,66.500001 150.59806,66.500001 H 389.26416 C 394.87916,66.500001 399.43116,71.051901 399.43116,76.666901 V 117.3329 C 399.43116,122.9479 394.87916,127.4999 389.26416,127.4999 H 150.59806 C 144.98306,127.4999 140.43126,122.9479 140.43126,117.3329 Z"
     stroke="#404040"
     stroke-linejoin="round"
     stroke-miterlimit="10"
     fill="none"
     fill-rule="evenodd"
     id="path2" />
  <text
     font-family="Consolas, Consolas_MSFontService, sans-serif"
     font-weight="400"
     font-size="37px"
     id="text2"
     x="166.55505"
     y="108.9999">23.8568108</text>
  <path
     d="M 212.43116,10.666801 C 212.43116,5.0518008 216.98316,0.50000082 222.59816,0.50000082 H 461.26416 C 466.87916,0.50000082 471.43116,5.0518008 471.43116,10.666801 V 51.333101 C 471.43116,56.948101 466.87916,61.500001 461.26416,61.500001 H 222.59816 C 216.98316,61.500001 212.43116,56.948101 212.43116,51.333101 Z"
     stroke="#404040"
     stroke-linejoin="round"
     stroke-miterlimit="10"
     fill="none"
     fill-rule="evenodd"
     id="path3" />
  <text
     fill="#595959"
     font-family="Consolas, Consolas_MSFontService, sans-serif"
     font-weight="400"
     font-size="37px"
     id="text3"
     x="228.55615"
     y="42.999901">+0.02161899</text>
  <path
     d="M 213.43116,142.4999 C 213.43116,136.9769 217.90816,132.4999 223.43116,132.4999 H 462.43116 C 467.95416,132.4999 472.43116,136.9769 472.43116,142.4999 V 182.4999 C 472.43116,188.0229 467.95416,192.4999 462.43116,192.4999 H 223.43116 C 217.90816,192.4999 213.43116,188.0229 213.43116,182.4999 Z"
     stroke="#404040"
     stroke-linejoin="round"
     stroke-miterlimit="10"
     fill="none"
     fill-rule="evenodd"
     id="path4" />
  <text
     fill="#595959"
     font-family="Consolas, Consolas_MSFontService, sans-serif"
     font-weight="400"
     font-size="37px"
     id="text4"
     x="230.05515"
     y="173.99991">-</text>
  <text
     fill="#595959"
     font-family="Consolas, Consolas_MSFontService, sans-serif"
     font-weight="400"
     font-size="37px"
     id="text5"
     x="250.55515"
     y="173.99991">0.02160697</text>
  <path
     d="M 807.43116,10.500201 C 807.43116,4.9772008 811.90816,0.50000082 817.43116,0.50000082 H 1056.4312 C 1061.9542,0.50000082 1066.4312,4.9772008 1066.4312,10.500201 V 50.499701 C 1066.4312,56.022701 1061.9542,60.499901 1056.4312,60.499901 H 817.43116 C 811.90816,60.499901 807.43116,56.022701 807.43116,50.499701 Z"
     stroke="#404040"
     stroke-linejoin="round"
     stroke-miterlimit="10"
     fill="none"
     fill-rule="evenodd"
     id="path5" />
  <text
     fill="#595959"
     font-family="Consolas, Consolas_MSFontService, sans-serif"
     font-weight="400"
     font-size="37px"
     id="text6"
     x="874.55518"
     y="41.999901">+0.022</text>
  <path
     d="M 808.43116,142.6669 C 808.43116,137.0519 812.98316,132.4999 818.59816,132.4999 H 1057.2642 C 1062.8792,132.4999 1067.4312,137.0519 1067.4312,142.6669 V 183.3329 C 1067.4312,188.9479 1062.8792,193.4999 1057.2642,193.4999 H 818.59816 C 812.98316,193.4999 808.43116,188.9479 808.43116,183.3329 Z"
     stroke="#404040"
     stroke-linejoin="round"
     stroke-miterlimit="10"
     fill="none"
     fill-rule="evenodd"
     id="path6" />
  <text
     fill="#595959"
     font-family="Consolas, Consolas_MSFontService, sans-serif"
     font-weight="400"
     font-size="37px"
     id="text7"
     x="875.55518"
     y="174.99991">-</text>
  <text
     fill="#595959"
     font-family="Consolas, Consolas_MSFontService, sans-serif"
     font-weight="400"
     font-size="37px"
     id="text8"
     x="896.05518"
     y="174.99991">0.022</text>
  <path
     d="M 1027.4312,76.666901 C 1027.4312,71.051901 1031.9832,66.500001 1037.5982,66.500001 H 1277.2612 C 1282.8812,66.500001 1287.4312,71.051901 1287.4312,76.666901 V 117.3329 C 1287.4312,122.9479 1282.8812,127.4999 1277.2612,127.4999 H 1037.5982 C 1031.9832,127.4999 1027.4312,122.9479 1027.4312,117.3329 Z"
     stroke="#404040"
     stroke-linejoin="round"
     stroke-miterlimit="10"
     fill="none"
     fill-rule="evenodd"
     id="path8" />
  <text
     font-family="Consolas, Consolas_MSFontService, sans-serif"
     font-weight="400"
     font-size="37px"
     id="text9"
     x="1095.3112"
     y="108.9999">23.857</text>
  <path
     d="M 470.93116,30.393401 L 806.68016,29.99991"
     stroke="#000000"
     stroke-width="2"
     stroke-linejoin="round"
     stroke-miterlimit="10"
     stroke-dasharray="8, 6"
     fill="none"
     fill-rule="evenodd"
     id="path9" />
  <path
     d="M 471.93116,161.9999 L 807.18016,162.6049"
     stroke="#000000"
     stroke-width="2"
     stroke-linejoin="round"
     stroke-miterlimit="10"
     stroke-dasharray="8, 6"
     fill="none"
     fill-rule="evenodd"
     id="path10" />
  <path
     d="M 398.93116,95.999901 H 1027.4322"
     stroke="#000000"
     stroke-width="2"
     stroke-linejoin="round"
     stroke-miterlimit="10"
     stroke-dasharray="8, 6"
     fill="none"
     fill-rule="evenodd"
     id="path11" />
  <path
     d="M 1026.9322,95.797901 L 935.93116,59.999901"
     stroke="#000000"
     stroke-width="2"
     stroke-linejoin="round"
     stroke-miterlimit="10"
     stroke-dasharray="8, 6"
     fill="none"
     fill-rule="evenodd"
     id="path12" />
  <path
     d="M 936.93116,132.0099 L 1026.9327,96.000301"
     stroke="#000000"
     stroke-width="2"
     stroke-linejoin="round"
     stroke-miterlimit="10"
     stroke-dasharray="8, 6"
     fill="none"
     fill-rule="evenodd"
     id="path13" />
  <path
     d="M 138.43126,535.6669 C 138.43126,530.0519 142.98306,525.4999 148.59806,525.4999 H 387.26416 C 392.87916,525.4999 397.43116,530.0519 397.43116,535.6669 V 576.3329 C 397.43116,581.9479 392.87916,586.4999 387.26416,586.4999 H 148.59806 C 142.98306,586.4999 138.43126,581.9479 138.43126,576.3329 Z"
     stroke="#404040"
     stroke-linejoin="round"
     stroke-miterlimit="10"
     fill="none"
     fill-rule="evenodd"
     id="path14" />
  <text
     font-family="Consolas, Consolas_MSFontService, sans-serif"
     font-weight="400"
     font-size="37px"
     id="text14"
     x="205.80615"
     y="567.99988">1.4854</text>
  <path
     d="M 212.43116,467.6669 C 212.43116,462.0519 216.98316,457.4999 222.59816,457.4999 H 461.26416 C 466.87916,457.4999 471.43116,462.0519 471.43116,467.6669 V 508.3329 C 471.43116,513.9479 466.87916,518.4999 461.26416,518.4999 H 222.59816 C 216.98316,518.4999 212.43116,513.9479 212.43116,508.3329 Z"
     stroke="#404040"
     stroke-linejoin="round"
     stroke-miterlimit="10"
     fill="none"
     fill-rule="evenodd"
     id="path15" />
  <text
     fill="#595959"
     font-family="Consolas, Consolas_MSFontService, sans-serif"
     font-weight="400"
     font-size="37px"
     id="text15"
     x="270.05615"
     y="499.99991">+0.0342</text>
  <path
     d="M 213.43116,603.6669 C 213.43116,598.0519 217.98316,593.4999 223.59816,593.4999 H 462.26416 C 467.87916,593.4999 472.43116,598.0519 472.43116,603.6669 V 644.3329 C 472.43116,649.9479 467.87916,654.4999 462.26416,654.4999 H 223.59816 C 217.98316,654.4999 213.43116,649.9479 213.43116,644.3329 Z"
     stroke="#404040"
     stroke-linejoin="round"
     stroke-miterlimit="10"
     fill="none"
     fill-rule="evenodd"
     id="path16" />
  <text
     fill="#595959"
     font-family="Consolas, Consolas_MSFontService, sans-serif"
     font-weight="400"
     font-size="37px"
     id="text16"
     x="271.05615"
     y="635.99988">-</text>
  <text
     fill="#595959"
     font-family="Consolas, Consolas_MSFontService, sans-serif"
     font-weight="400"
     font-size="37px"
     id="text17"
     x="291.55615"
     y="635.99988">0.0211</text>
  <path
     d="M 810.43116,467.6669 C 810.43116,462.0519 814.98316,457.4999 820.59816,457.4999 H 1060.2642 C 1065.8792,457.4999 1070.4312,462.0519 1070.4312,467.6669 V 508.3329 C 1070.4312,513.9479 1065.8792,518.4999 1060.2642,518.4999 H 820.59816 C 814.98316,518.4999 810.43116,513.9479 810.43116,508.3329 Z"
     stroke="#404040"
     stroke-linejoin="round"
     stroke-miterlimit="10"
     fill="none"
     fill-rule="evenodd"
     id="path17" />
  <text
     fill="#595959"
     font-family="Consolas, Consolas_MSFontService, sans-serif"
     font-weight="400"
     font-size="37px"
     id="text18"
     x="888.80615"
     y="499.99991">+0.04</text>
  <path
     d="M 809.43116,603.6669 C 809.43116,598.0519 813.98316,593.4999 819.59816,593.4999 H 1059.2642 C 1064.8792,593.4999 1069.4312,598.0519 1069.4312,603.6669 V 644.3329 C 1069.4312,649.9479 1064.8792,654.4999 1059.2642,654.4999 H 819.59816 C 813.98316,654.4999 809.43116,649.9479 809.43116,644.3329 Z"
     stroke="#404040"
     stroke-linejoin="round"
     stroke-miterlimit="10"
     fill="none"
     fill-rule="evenodd"
     id="path18" />
  <text
     fill="#595959"
     font-family="Consolas, Consolas_MSFontService, sans-serif"
     font-weight="400"
     font-size="37px"
     id="text19"
     x="887.55518"
     y="635.99988">-</text>
  <text
     fill="#595959"
     font-family="Consolas, Consolas_MSFontService, sans-serif"
     font-weight="400"
     font-size="37px"
     id="text20"
     x="908.05518"
     y="635.99988">0.03</text>
  <path
     d="M 1026.4312,535.6669 C 1026.4312,530.0519 1030.9832,525.4999 1036.5982,525.4999 H 1276.2612 C 1281.8812,525.4999 1286.4312,530.0519 1286.4312,535.6669 V 576.3329 C 1286.4312,581.9479 1281.8812,586.4999 1276.2612,586.4999 H 1036.5982 C 1030.9832,586.4999 1026.4312,581.9479 1026.4312,576.3329 Z"
     stroke="#404040"
     stroke-linejoin="round"
     stroke-miterlimit="10"
     fill="none"
     fill-rule="evenodd"
     id="path20" />
  <text
     font-family="Consolas, Consolas_MSFontService, sans-serif"
     font-weight="400"
     font-size="37px"
     id="text21"
     x="1115.0612"
     y="567.99988">1.48</text>
  <path
     d="M 470.93116,487.9999 H 510.68116"
     stroke="#000000"
     stroke-width="2"
     stroke-linejoin="round"
     stroke-miterlimit="10"
     stroke-dasharray="8, 6"
     fill="none"
     fill-rule="evenodd"
     id="path21" />
  <path
     d="M 471.93116,622.9999 L 510.68106,622.9998"
     stroke="#000000"
     stroke-width="2"
     stroke-linejoin="round"
     stroke-miterlimit="10"
     stroke-dasharray="8, 6"
     fill="none"
     fill-rule="evenodd"
     id="path22" />
  <path
     d="M 396.93116,555.9999 H 1026.4322"
     stroke="#000000"
     stroke-width="2"
     stroke-linejoin="round"
     stroke-miterlimit="10"
     stroke-dasharray="8, 6"
     fill="none"
     fill-rule="evenodd"
     id="path23" />
  <path
     d="M 1026.1822,555.4099 L 939.93116,517.9999"
     stroke="#000000"
     stroke-width="2"
     stroke-linejoin="round"
     stroke-miterlimit="10"
     stroke-dasharray="8, 6"
     fill="none"
     fill-rule="evenodd"
     id="path24" />
  <path
     d="M 938.93116,593.5729 L 1026.4327,556.0004"
     stroke="#000000"
     stroke-width="2"
     stroke-linejoin="round"
     stroke-miterlimit="10"
     stroke-dasharray="8, 6"
     fill="none"
     fill-rule="evenodd"
     id="path25" />
  <path
     d="M 137.43126,304.4999 C 137.43126,298.9769 141.90846,294.4999 147.43146,294.4999 H 386.43116 C 391.95416,294.4999 396.43116,298.9769 396.43116,304.4999 V 344.4999 C 396.43116,350.0229 391.95416,354.4999 386.43116,354.4999 H 147.43146 C 141.90846,354.4999 137.43126,350.0229 137.43126,344.4999 Z"
     stroke="#404040"
     stroke-linejoin="round"
     stroke-miterlimit="10"
     fill="none"
     fill-rule="evenodd"
     id="path26" />
  <text
     font-family="Consolas, Consolas_MSFontService, sans-serif"
     font-weight="400"
     font-size="37px"
     id="text26"
     x="174.55615"
     y="335.99991">0.0167550</text>
  <path
     d="M 212.43116,239.4999 C 212.43116,233.9769 216.90816,229.4999 222.43116,229.4999 H 461.43116 C 466.95416,229.4999 471.43116,233.9769 471.43116,239.4999 V 279.4999 C 471.43116,285.0229 466.95416,289.4999 461.43116,289.4999 H 222.43116 C 216.90816,289.4999 212.43116,285.0229 212.43116,279.4999 Z"
     stroke="#404040"
     stroke-linejoin="round"
     stroke-miterlimit="10"
     fill="none"
     fill-rule="evenodd"
     id="path27" />
  <text
     fill="#595959"
     font-family="Consolas, Consolas_MSFontService, sans-serif"
     font-weight="400"
     font-size="37px"
     id="text27"
     x="238.80615"
     y="270.99991">+0.0001213</text>
  <path
     d="M 212.43116,371.4999 C 212.43116,365.9769 216.90816,361.4999 222.43116,361.4999 H 461.43116 C 466.95416,361.4999 471.43116,365.9769 471.43116,371.4999 V 411.4999 C 471.43116,417.0229 466.95416,421.4999 461.43116,421.4999 H 222.43116 C 216.90816,421.4999 212.43116,417.0229 212.43116,411.4999 Z"
     stroke="#404040"
     stroke-linejoin="round"
     stroke-miterlimit="10"
     fill="none"
     fill-rule="evenodd"
     id="path28" />
  <text
     fill="#595959"
     font-family="Consolas, Consolas_MSFontService, sans-serif"
     font-weight="400"
     font-size="37px"
     id="text28"
     x="238.80615"
     y="402.99991">-</text>
  <text
     fill="#595959"
     font-family="Consolas, Consolas_MSFontService, sans-serif"
     font-weight="400"
     font-size="37px"
     id="text29"
     x="259.30615"
     y="402.99991">0.0000953</text>
  <path
     d="M 810.43116,239.4999 C 810.43116,233.9769 814.90816,229.4999 820.43116,229.4999 H 1059.4312 C 1064.9542,229.4999 1069.4312,233.9769 1069.4312,239.4999 V 279.4999 C 1069.4312,285.0229 1064.9542,289.4999 1059.4312,289.4999 H 820.43116 C 814.90816,289.4999 810.43116,285.0229 810.43116,279.4999 Z"
     stroke="#404040"
     stroke-linejoin="round"
     stroke-miterlimit="10"
     fill="none"
     fill-rule="evenodd"
     id="path29" />
  <text
     fill="#595959"
     font-family="Consolas, Consolas_MSFontService, sans-serif"
     font-weight="400"
     font-size="37px"
     id="text30"
     x="857.80615"
     y="270.99991">+0.00013</text>
  <path
     d="M 810.43116,371.6669 C 810.43116,366.0519 814.98316,361.4999 820.59816,361.4999 H 1059.2642 C 1064.8792,361.4999 1069.4312,366.0519 1069.4312,371.6669 V 412.3329 C 1069.4312,417.9479 1064.8792,422.4999 1059.2642,422.4999 H 820.59816 C 814.98316,422.4999 810.43116,417.9479 810.43116,412.3329 Z"
     stroke="#404040"
     stroke-linejoin="round"
     stroke-miterlimit="10"
     fill="none"
     fill-rule="evenodd"
     id="path30" />
  <text
     fill="#595959"
     font-family="Consolas, Consolas_MSFontService, sans-serif"
     font-weight="400"
     font-size="37px"
     id="text31"
     x="857.55615"
     y="403.99991">-</text>
  <text
     fill="#595959"
     font-family="Consolas, Consolas_MSFontService, sans-serif"
     font-weight="400"
     font-size="37px"
     id="text32"
     x="878.05615"
     y="403.99991">0.00010</text>
  <path
     d="M 1026.4312,304.6669 C 1026.4312,299.0519 1030.9832,294.4999 1036.5982,294.4999 H 1275.2612 C 1280.8812,294.4999 1285.4312,299.0519 1285.4312,304.6669 V 345.3329 C 1285.4312,350.9479 1280.8812,355.4999 1275.2612,355.4999 H 1036.5982 C 1030.9832,355.4999 1026.4312,350.9479 1026.4312,345.3329 Z"
     stroke="#404040"
     stroke-linejoin="round"
     stroke-miterlimit="10"
     fill="none"
     fill-rule="evenodd"
     id="path32" />
  <text
     font-family="Consolas, Consolas_MSFontService, sans-serif"
     font-weight="400"
     font-size="37px"
     id="text33"
     x="1084.0612"
     y="336.99991">0.01676</text>
  <path
     d="M 470.93116,258.9999 H 810.43116"
     stroke="#000000"
     stroke-width="2"
     stroke-linejoin="round"
     stroke-miterlimit="10"
     stroke-dasharray="8, 6"
     fill="none"
     fill-rule="evenodd"
     id="path33" />
  <path
     d="M 470.93116,390.9999 L 809.93116,391.1629"
     stroke="#000000"
     stroke-width="2"
     stroke-linejoin="round"
     stroke-miterlimit="10"
     stroke-dasharray="8, 6"
     fill="none"
     fill-rule="evenodd"
     id="path34" />
  <path
     d="M 395.93116,323.9999 L 1025.9322,324.6499"
     stroke="#000000"
     stroke-width="2"
     stroke-linejoin="round"
     stroke-miterlimit="10"
     stroke-dasharray="8, 6"
     fill="none"
     fill-rule="evenodd"
     id="path35" />
  <path
     d="M 1026.4322,324.3429 L 939.93116,288.9999"
     stroke="#000000"
     stroke-width="2"
     stroke-linejoin="round"
     stroke-miterlimit="10"
     stroke-dasharray="8, 6"
     fill="none"
     fill-rule="evenodd"
     id="path36" />
  <path
     d="M 939.93116,361.1279 L 1026.6822,325.0001"
     stroke="#000000"
     stroke-width="2"
     stroke-linejoin="round"
     stroke-miterlimit="10"
     stroke-dasharray="8, 6"
     fill="none"
     fill-rule="evenodd"
     id="path37" />
  <path
     d="M 511.43116,467.6669 C 511.43116,462.0519 515.98316,457.4999 521.59816,457.4999 H 761.26416 C 766.87916,457.4999 771.43116,462.0519 771.43116,467.6669 V 508.3329 C 771.43116,513.9479 766.87916,518.4999 761.26416,518.4999 H 521.59816 C 515.98316,518.4999 511.43116,513.9479 511.43116,508.3329 Z"
     stroke="#404040"
     stroke-linejoin="round"
     stroke-miterlimit="10"
     fill="none"
     fill-rule="evenodd"
     id="path38" />
  <text
     fill="#595959"
     font-family="Consolas, Consolas_MSFontService, sans-serif"
     font-weight="400"
     font-size="37px"
     id="text38"
     x="589.55518"
     y="499.99991">+0.04</text>
  <path
     d="M 770.93116,487.9999 H 810.68116"
     stroke="#000000"
     stroke-width="2"
     stroke-linejoin="round"
     stroke-miterlimit="10"
     stroke-dasharray="8, 6"
     fill="none"
     fill-rule="evenodd"
     id="path39" />
  <path
     d="M 511.43116,603.6669 C 511.43116,598.0519 515.98316,593.4999 521.59816,593.4999 H 761.26416 C 766.87916,593.4999 771.43116,598.0519 771.43116,603.6669 V 644.3329 C 771.43116,649.9479 766.87916,654.4999 761.26416,654.4999 H 521.59816 C 515.98316,654.4999 511.43116,649.9479 511.43116,644.3329 Z"
     stroke="#404040"
     stroke-linejoin="round"
     stroke-miterlimit="10"
     fill="none"
     fill-rule="evenodd"
     id="path40" />
  <text
     fill="#595959"
     font-family="Consolas, Consolas_MSFontService, sans-serif"
     font-weight="400"
     font-size="37px"
     id="text40"
     x="579.30518"
     y="635.99988">+0.022</text>
  <path
     d="M 770.93116,622.9999 L 809.43116,623.1629"
     stroke="#000000"
     stroke-width="2"
     stroke-linejoin="round"
     stroke-miterlimit="10"
     stroke-dasharray="8, 6"
     fill="none"
     fill-rule="evenodd"
     id="path41" />
  <path
     d="M 121.93116,212.9999 H 1301.2412"
     stroke="#262626"
     stroke-width="4"
     stroke-miterlimit="8"
     fill="none"
     fill-rule="evenodd"
     id="path43" />
  <path
     d="M 121.93116,438.9999 H 1301.2412"
     stroke="#262626"
     stroke-width="4"
     stroke-miterlimit="8"
     fill="none"
     fill-rule="evenodd"
     id="path45" />
</svg>
